<svg width="73" height="56" viewBox="0 0 73 56" fill="none" xmlns="http://www.w3.org/2000/svg">
<g clip-path="url(#clip0_1311_7852)">
<path d="M11.2734 38.5859L18.0703 9.875H21.8672L22.7344 14.6562L15.4922 44H11.4141L11.2734 38.5859ZM7.78125 9.875L13.4062 38.5859L12.9375 44H8.39062L0.820312 9.875H7.78125ZM28.7109 38.4688L34.2656 9.875H41.2266L33.6797 44H29.1328L28.7109 38.4688ZM24 9.875L30.8438 38.7031L30.6562 44H26.5781L19.2891 14.6328L20.2266 9.875H24ZM58.4062 29.0234H49.6406L49.5938 24.1953H56.9531C58.25 24.1953 59.3125 24.0312 60.1406 23.7031C60.9688 23.3594 61.5859 22.8672 61.9922 22.2266C62.4141 21.5703 62.625 20.7734 62.625 19.8359C62.625 18.7734 62.4219 17.9141 62.0156 17.2578C61.625 16.6016 61.0078 16.125 60.1641 15.8281C59.3359 15.5312 58.2656 15.3828 56.9531 15.3828H52.0781V44H45.0469V9.875H56.9531C58.9375 9.875 60.7109 10.0625 62.2734 10.4375C63.8516 10.8125 65.1875 11.3828 66.2812 12.1484C67.375 12.9141 68.2109 13.8828 68.7891 15.0547C69.3672 16.2109 69.6562 17.5859 69.6562 19.1797C69.6562 20.5859 69.3359 21.8828 68.6953 23.0703C68.0703 24.2578 67.0781 25.2266 65.7188 25.9766C64.375 26.7266 62.6172 27.1406 60.4453 27.2188L58.4062 29.0234ZM58.1016 44H47.7188L50.4609 38.5156H58.1016C59.3359 38.5156 60.3438 38.3203 61.125 37.9297C61.9062 37.5234 62.4844 36.9766 62.8594 36.2891C63.2344 35.6016 63.4219 34.8125 63.4219 33.9219C63.4219 32.9219 63.25 32.0547 62.9062 31.3203C62.5781 30.5859 62.0469 30.0234 61.3125 29.6328C60.5781 29.2266 59.6094 29.0234 58.4062 29.0234H51.6328L51.6797 24.1953H60.1172L61.7344 26.0938C63.8125 26.0625 65.4844 26.4297 66.75 27.1953C68.0312 27.9453 68.9609 28.9219 69.5391 30.125C70.1328 31.3281 70.4297 32.6172 70.4297 33.9922C70.4297 36.1797 69.9531 38.0234 69 39.5234C68.0469 41.0078 66.6484 42.125 64.8047 42.875C62.9766 43.625 60.7422 44 58.1016 44Z" fill="#C621D4"/>
</g>
<defs>
<clipPath id="clip0_1311_7852">
<rect width="73" height="56" fill="white"/>
</clipPath>
</defs>
</svg>
